<!--<svg id="Layer_1" data-name="Layer 1" xmlns="http://www.w3.org/2000/svg" viewBox="0 0 980.83 885.43"><defs></defs><path class="cls-1" d="M519 251l-116 -31q-19 -5 -29 -13.5t-10 -24.5v-1q0 -14 12.5 -29t47.5 -15q47 0 71 23t24 55v36zM522 68q-10 -9 -30.5 -22.5t-52 -26t-75.5 -21t-101 -8.5h-6q-68 0 -114.5 14.5t-76 38.5t-42.5 54t-13 61v20q0 28 9 52.5t32 44t62 32.5t99 18l283 23q15 2 19.5 8
t4.5 14v1q0 13 -14 23.5t-60 10.5h-2q-30 0 -46 -5t-24 -12t-10 -14.5t-2 -12.5h-338v12q0 18 3.5 38.5t16.5 40.5t38 38t68.5 31.5t107.5 21.5t156 8h57q96 0 163.5 -8.5t113.5 -22.5t72 -32t40 -37t17.5 -38t3.5 -35v-184q0 -17 14 -17h31v-177h-313q-42 0 -64 19t-27 49z
"/></svg>-->

<svg width="966" height="886" viewBox="0 0 966 886" fill="none" xmlns="http://www.w3.org/2000/svg">
<path d="M515.231 614L401.005 645C388.532 648.333 379.013 652.833 372.449 658.5C365.884 664.167 362.602 672.333 362.602 683L362.602 684C362.602 693.333 366.705 703 374.91 713C383.116 723 398.708 728 421.684 728C452.538 728 475.843 720.333 491.598 705C507.354 689.667 515.231 671.333 515.231 650L515.231 614ZM518.185 797C511.621 803 501.609 810.5 488.152 819.5C474.694 828.5 457.626 837.167 436.947 845.5C416.268 853.833 391.486 860.833 362.602 866.5C333.717 872.167 300.565 875 263.146 875L257.238 875C212.598 875 175.015 870.167 144.489 860.5C113.963 850.833 89.0172 838 69.6512 822C50.2853 806 36.3353 788 27.8012 768C19.2671 748 15 727.667 15 707L15 687C15 668.333 17.9541 650.833 23.8623 634.5C29.7706 618.167 40.2741 603.5 55.373 590.5C70.4718 577.5 90.8224 566.667 116.425 558C142.027 549.333 174.523 543.333 213.911 540L492.583 517C502.43 515.667 508.831 513 511.785 509C514.739 505 516.216 500.333 516.216 495L516.216 494C516.216 485.333 511.621 477.5 502.43 470.5C493.239 463.5 473.545 460 443.348 460L441.378 460C421.684 460 406.585 461.667 396.082 465C385.578 468.333 377.7 472.333 372.449 477C367.197 481.667 363.915 486.5 362.602 491.5C361.289 496.5 360.632 500.667 360.632 504L27.8012 504L27.8012 492C27.8012 480 28.95 467.167 31.2476 453.5C33.5453 439.833 38.9612 426.333 47.4953 413C56.0294 399.667 68.5024 387 84.9142 375C101.326 363 123.81 352.5 152.367 343.5C180.923 334.5 216.208 327.333 258.223 322C300.237 316.667 351.442 314 411.837 314L467.965 314C530.987 314 584.653 316.833 628.965 322.5C673.277 328.167 710.531 335.667 740.729 345C770.927 354.333 794.56 365 811.628 377C828.696 389 841.826 401.333 851.016 414C860.207 426.667 865.951 439.333 868.249 452C870.546 464.667 871.695 476.333 871.695 487L871.695 671C871.695 682.333 876.291 688 885.481 688L916.007 688L916.007 865L607.794 865C580.222 865 559.215 858.667 544.772 846C530.33 833.333 521.468 817 518.185 797Z" fill="black"/>
</svg>
