<!--<svg id="Layer_1" data-name="Layer 1" xmlns="http://www.w3.org/2000/svg" viewBox="0 0 980.83 885.43"><defs></defs><path class="cls-1" d="M391 744v-276q6 6 24.5 18t49 24.5t74 22t100.5 9.5h26q91 0 150 -23t93 -60t47 -83t13 -91v-25q0 -47 -14 -94t-50 -85t-98 -61.5t-157 -23.5h-27q-52 0 -92 8t-70 18.5t-49 22t-29 17.5q-3 -11 -6.5 -29.5t-5.5 -32.5h-343v744h364zM391 267q0 -20 6.5 -39t19.5 -33.5
t33 -23.5t46 -9h5q28 0 47 9t30.5 24t16.5 34t5 38v4q0 19 -5 38t-16 34t-30 24t-47 9h-6q-27 0 -47 -9t-33 -23.5t-19 -33.5t-6 -39v-4z"/></svg>-->

<svg width="981" height="886" viewBox="0 0 981 886" fill="none" xmlns="http://www.w3.org/2000/svg">
<path d="M379 127V403C383 399 391.167 393 403.5 385C415.833 377 432.167 368.833 452.5 360.5C472.833 352.167 497.5 344.833 526.5 338.5C555.5 332.167 589 329 627 329H653C713.667 329 763.667 336.667 803 352C842.333 367.333 873.333 387.333 896 412C918.667 436.667 934.333 464.333 943 495C951.667 525.667 956 556 956 586V611C956 642.333 951.333 673.667 942 705C932.667 736.333 916 764.667 892 790C868 815.333 835.333 835.833 794 851.5C752.667 867.167 700.333 875 637 875H610C575.333 875 544.667 872.333 518 867C491.333 861.667 468 855.5 448 848.5C428 841.5 411.667 834.167 399 826.5C386.333 818.833 376.667 813 370 809C368 816.333 365.833 826.167 363.5 838.5C361.167 850.833 359.333 861.667 358 871H15V127H379ZM379 604C379 617.333 381.167 630.333 385.5 643C389.833 655.667 396.333 666.833 405 676.5C413.667 686.167 424.667 694 438 700C451.333 706 466.667 709 484 709H489C507.667 709 523.333 706 536 700C548.667 694 558.833 686 566.5 676C574.167 666 579.667 654.667 583 642C586.333 629.333 588 616.667 588 604V600C588 587.333 586.333 574.667 583 562C579.667 549.333 574.333 538 567 528C559.667 518 549.667 510 537 504C524.333 498 508.667 495 490 495H484C466 495 450.333 498 437 504C423.667 510 412.667 517.833 404 527.5C395.333 537.167 389 548.333 385 561C381 573.667 379 586.667 379 600V604Z" fill="black"/>
</svg>