
<svg id="Layer_1" data-name="Layer 1" xmlns="http://www.w3.org/2000/svg" viewBox="0 0 980.83 885.43"><defs></defs><path class="cls-1" d="M450 -15q-105 0 -178 14t-122 37t-76 52.5t-41 60.5t-17 61.5t-3 54.5v14q0 24 3 53.5t16.5 60t41 59.5t76 51.5t121.5 36t178 13.5h72q100 0 171 -13t118.5 -34.5t75 -48.5t41.5 -55t18 -53.5t4 -44.5v-3h-369q0 7 -3.5 21t-13.5 28t-28.5 25t-49.5 11h-5
q-32 0 -51.5 -10t-30 -26t-13.5 -35.5t-3 -37.5v-1q0 -20 3 -41.5t13.5 -39t30 -29t51.5 -11.5h5q31 0 49.5 12t28.5 27.5t13.5 30.5t3.5 22h369v-3q0 -17 -3 -43t-16.5 -54.5t-40.5 -57.5t-74.5 -52t-119.5 -37.5t-175 -14.5h-70z"/></svg>
