<!--<svg id="Layer_1" data-name="Layer 1" xmlns="http://www.w3.org/2000/svg" viewBox="0 0 980.83 885.43"><defs></defs><path class="cls-1" d="M586 279q0 15 -5 32t-17 31t-32 23.5t-50 9.5h-4q-29 0 -47.5 -9.5t-29.5 -24t-15 -31.5t-4 -33v-5q0 -18 4 -36.5t15 -33.5t29 -25t47 -10h4q30 0 50.5 9.5t32.5 24.5t17 33.5t5 36.5v8zM950 744v-744h-364v71q-9 -8 -26 -21t-46.5 -25t-72 -20.5t-102.5 -8.5h-25
q-84 0 -141 23t-92.5 60t-51 84.5t-15.5 95.5v25q0 46 15 92t49.5 83t90.5 60t139 23h25q59 0 103 -7.5t74.5 -18t48.5 -21t27 -16.5v265h364z"/></svg>
-->
<svg width="981" height="886" viewBox="0 0 981 886" fill="none" xmlns="http://www.w3.org/2000/svg">
<path d="M587 592C587 582 585.333 571.333 582 560C578.667 548.667 573 538.333 565 529C557 519.667 546.333 511.833 533 505.5C519.667 499.167 503 496 483 496H479C459.667 496 443.833 499.167 431.5 505.5C419.167 511.833 409.333 519.833 402 529.5C394.667 539.167 389.667 549.667 387 561C384.333 572.333 383 583.333 383 594V599C383 611 384.333 623.167 387 635.5C389.667 647.833 394.667 659 402 669C409.333 679 419 687.333 431 694C443 700.667 458.667 704 478 704H482C502 704 518.833 700.833 532.5 694.5C546.167 688.167 557 680 565 670C573 660 578.667 648.833 582 636.5C585.333 624.167 587 612 587 600V592ZM951 127V871H587V800C581 805.333 572.333 812.333 561 821C549.667 829.667 534.167 838 514.5 846C494.833 854 470.833 860.833 442.5 866.5C414.167 872.167 380 875 340 875H315C259 875 212 867.333 174 852C136 836.667 105.167 816.667 81.5 792C57.8333 767.333 40.8333 739.167 30.5 707.5C20.1667 675.833 15 644 15 612V587C15 556.333 20 525.667 30 495C40 464.333 56.5 436.667 79.5 412C102.5 387.333 132.667 367.333 170 352C207.333 336.667 253.667 329 309 329H334C373.333 329 407.667 331.5 437 336.5C466.333 341.5 491.167 347.5 511.5 354.5C531.833 361.5 548 368.5 560 375.5C572 382.5 581 388 587 392V127H951Z" fill="black"/>
</svg>