<!--<svg id="Layer_1" data-name="Layer 1" xmlns="http://www.w3.org/2000/svg" viewBox="0 0 980.83 885.43"><defs></defs><path class="cls-1" d="M589 347q-2 12 -8 23t-18 19.5t-32 13t-50 4.5q-32 0 -52 -5t-32 -13.5t-17 -19t-7 -22.5h216zM949 204q0 -19 -5 -43t-21 -48.5t-46 -47.5t-80 -40.5t-123 -28.5t-175 -11h-45q-103 0 -176 14t-122 37t-77.5 52.5t-43 61t-18.5 62t-4 55.5v14q0 25 4 55t19 60t43.5 58.5
t77.5 50.5t122 35t176 13h44q105 0 179.5 -13.5t124.5 -36.5t79 -53t44 -63.5t19 -68t4 -65.5v-14h-577q1 -15 6.5 -30.5t17.5 -28.5t33 -21t54 -8q36 0 56.5 7t31.5 16.5t14.5 18.5t4.5 13h359v-2z"/></svg>
-->
<svg width="981" height="886" viewBox="0 0 981 886" fill="none" xmlns="http://www.w3.org/2000/svg">
<path d="M591 513C589.667 505 587 497.333 583 490C579 482.667 573 476.167 565 470.5C557 464.833 546.333 460.5 533 457.5C519.667 454.5 503 453 483 453C461.667 453 444.333 454.667 431 458C417.667 461.333 407 465.833 399 471.5C391 477.167 385.333 483.5 382 490.5C378.667 497.5 376.333 505 375 513H591ZM951 656C951 668.667 949.333 683 946 699C942.667 715 935.667 731.167 925 747.5C914.333 763.833 899 779.667 879 795C859 810.333 832.333 823.833 799 835.5C765.667 847.167 724.667 856.667 676 864C627.333 871.333 569 875 501 875H456C387.333 875 328.667 870.333 280 861C231.333 851.667 190.667 839.333 158 824C125.333 808.667 99.5 791.167 80.5 771.5C61.5 751.833 47.1667 731.5 37.5 710.5C27.8333 689.5 21.6667 668.833 19 648.5C16.3333 628.167 15 609.667 15 593V579C15 562.333 16.3333 544 19 524C21.6667 504 28 484 38 464C48 444 62.5 424.5 81.5 405.5C100.5 386.5 126.333 369.667 159 355C191.667 340.333 232.333 328.667 281 320C329.667 311.333 388.333 307 457 307H501C571 307 630.833 311.5 680.5 320.5C730.167 329.5 771.667 341.667 805 357C838.333 372.333 864.667 390 884 410C903.333 430 918 451.167 928 473.5C938 495.833 944.333 518.5 947 541.5C949.667 564.5 951 586.333 951 607V621H374C374.667 631 376.833 641.167 380.5 651.5C384.167 661.833 390 671.333 398 680C406 688.667 417 695.667 431 701C445 706.333 463 709 485 709C509 709 527.833 706.667 541.5 702C555.167 697.333 565.667 691.833 573 685.5C580.333 679.167 585.167 673 587.5 667C589.833 661 591.333 656.667 592 654H951V656Z" fill="black"/>
</svg>