<!--<svg id="Layer_1" data-name="Layer 1" xmlns="http://www.w3.org/2000/svg" viewBox="0 0 980.83 885.43"><defs></defs><path class="cls-1" d="M594 578h-79q-17 0 -22 -7t-5 -22v-11h106v-198h-106v-340h-365v340h-112v198h112v32q0 89 51 131.5t165 42.5h255v-166z"/></svg>
-->
<svg width="381" height="886" viewBox="0 0 681 966" fill="none" xmlns="http://www.w3.org/2000/svg">
<path d="M598 297H519C507.667 297 500.333 299.333 497 304C493.667 308.667 492 316 492 326V337H598V535H492V875H127V535H15V337H127V305C127 245.667 144 201.833 178 173.5C212 145.167 267 131 343 131H598V297Z" fill="black"/>
</svg>