<!--<svg id="Layer_1" data-name="Layer 1" xmlns="http://www.w3.org/2000/svg" viewBox="0 0 980.83 885.43"><defs></defs><path class="cls-1" d="M482 367q-29 0 -48.5 -7.5t-31.5 -19.5t-17.5 -27.5t-5.5 -31.5v-3q0 -17 5.5 -34t17.5 -30.5t31.5 -21.5t48.5 -8h5q30 0 51 8t35 21.5t20.5 30t6.5 34.5v3q0 16 -6.5 31.5t-20.5 27.5t-35 19.5t-51 7.5h-5zM445 -196q-124 0 -202 19t-121.5 47.5t-59 62t-15.5 63.5v4
h364q1 -5 4.5 -10.5t11.5 -11t23 -9t39 -3.5h3q51 0 79.5 25.5t28.5 76.5v32q-9 -9 -26 -22.5t-47 -26.5t-76 -22t-113 -9h-23q-89 0 -147 23.5t-92.5 60t-48 82t-13.5 90.5v12q0 45 14.5 90t49.5 81.5t93 59t146 22.5h24q63 0 107.5 -7.5t74.5 -18t48 -21.5t29 -18v62h364
v-464q0 -48 -18 -96.5t-66 -87t-131.5 -62.5t-214.5 -24h-89z"/></svg>
-->
<svg width="981" height="886" viewBox="0 0 981 886" fill="none" xmlns="http://www.w3.org/2000/svg">
<path d="M483 312C463.667 312 447.5 314.5 434.5 319.5C421.5 324.5 411 331 403 339C395 347 389.167 356.167 385.5 366.5C381.833 376.833 380 387.333 380 398V401C380 412.333 381.833 423.667 385.5 435C389.167 446.333 395 456.5 403 465.5C411 474.5 421.5 481.667 434.5 487C447.5 492.333 463.667 495 483 495H488C508 495 525 492.333 539 487C553 481.667 564.667 474.5 574 465.5C583.333 456.5 590.167 446.5 594.5 435.5C598.833 424.5 601 413 601 401V398C601 387.333 598.833 376.833 594.5 366.5C590.167 356.167 583.333 347 574 339C564.667 331 553 324.5 539 319.5C525 314.5 508 312 488 312H483ZM446 875C363.333 875 296 868.667 244 856C192 843.333 151.5 827.5 122.5 808.5C93.5 789.5 73.8333 768.833 63.5 746.5C53.1667 724.167 48 703 48 683V679H412C412.667 682.333 414.167 685.833 416.5 689.5C418.833 693.167 422.667 696.833 428 700.5C433.333 704.167 441 707.167 451 709.5C461 711.833 474 713 490 713H493C527 713 553.5 704.5 572.5 687.5C591.5 670.5 601 645 601 611V579C595 585 586.333 592.5 575 601.5C563.667 610.5 548 619.333 528 628C508 636.667 482.667 644 452 650C421.333 656 383.667 659 339 659H316C256.667 659 207.667 651.167 169 635.5C130.333 619.833 99.5 599.833 76.5 575.5C53.5 551.167 37.5 523.833 28.5 493.5C19.5 463.167 15 433 15 403V391C15 361 19.8333 331 29.5 301C39.1667 271 55.6667 243.833 79 219.5C102.333 195.167 133.333 175.5 172 160.5C210.667 145.5 259.333 138 318 138H342C384 138 419.833 140.5 449.5 145.5C479.167 150.5 504 156.5 524 163.5C544 170.5 560 177.667 572 185C584 192.333 593.667 198.333 601 203V141H965V605C965 637 959 669.167 947 701.5C935 733.833 913 762.833 881 788.5C849 814.167 805.167 835 749.5 851C693.833 867 622.333 875 535 875H446Z" fill="black"/>
</svg>